<mxfile host="Electron" modified="2024-01-24T01:52:14.849Z" agent="Mozilla/5.0 (Windows NT 10.0; Win64; x64) AppleWebKit/537.36 (KHTML, like Gecko) draw.io/22.1.21 Chrome/120.0.6099.109 Electron/28.1.0 Safari/537.36" etag="29OwDqLSmr4YekHfhR_c" version="22.1.21" type="device">
  <diagram name="Page-1" id="ft1xzzVUmPAsk-sKSAoQ">
    <mxGraphModel dx="1098" dy="988" grid="1" gridSize="10" guides="1" tooltips="1" connect="1" arrows="1" fold="1" page="1" pageScale="1" pageWidth="850" pageHeight="1100" math="0" shadow="0">
      <root>
        <mxCell id="0" />
        <mxCell id="1" parent="0" />
        <mxCell id="mAaDMo2v-VrkJS3IuSnh-2" value="" style="rounded=0;whiteSpace=wrap;html=1;" vertex="1" parent="1">
          <mxGeometry x="20" y="130" width="340" height="560" as="geometry" />
        </mxCell>
        <mxCell id="mAaDMo2v-VrkJS3IuSnh-3" value="Base Screen" style="text;html=1;strokeColor=none;fillColor=none;align=center;verticalAlign=middle;whiteSpace=wrap;rounded=0;" vertex="1" parent="1">
          <mxGeometry x="150" y="90" width="80" height="30" as="geometry" />
        </mxCell>
        <mxCell id="mAaDMo2v-VrkJS3IuSnh-4" value="Business Image" style="rounded=0;whiteSpace=wrap;html=1;" vertex="1" parent="1">
          <mxGeometry x="30" y="140" width="320" height="260" as="geometry" />
        </mxCell>
        <mxCell id="mAaDMo2v-VrkJS3IuSnh-5" value="Business Name" style="text;html=1;strokeColor=none;fillColor=none;align=center;verticalAlign=middle;whiteSpace=wrap;rounded=0;" vertex="1" parent="1">
          <mxGeometry x="160" y="450" width="90" height="30" as="geometry" />
        </mxCell>
        <mxCell id="mAaDMo2v-VrkJS3IuSnh-6" value="Business Phone" style="text;html=1;strokeColor=none;fillColor=none;align=center;verticalAlign=middle;whiteSpace=wrap;rounded=0;" vertex="1" parent="1">
          <mxGeometry x="160" y="480" width="90" height="30" as="geometry" />
        </mxCell>
        <mxCell id="mAaDMo2v-VrkJS3IuSnh-7" value="Business Website" style="text;html=1;strokeColor=none;fillColor=none;align=center;verticalAlign=middle;whiteSpace=wrap;rounded=0;" vertex="1" parent="1">
          <mxGeometry x="155" y="510" width="100" height="30" as="geometry" />
        </mxCell>
      </root>
    </mxGraphModel>
  </diagram>
</mxfile>
